PathFileType	4	(X/Y/Z)	Kaydara																																																																																																																									
DataRate	CameraRate	NumFrames	NumMarkers	Units	OrigDataRate	OrigDataStartFrame	OrigNumFrames																																																																																																																					
30	30	4	41	mm	30	133	176																																																																																																																					
Frame#	Time	SALE_LFHD			SALE_RFHD			SALE_LBHD			SALE_RBHD			SALE_LFTShould			SALE_RFTShould			SALE_LRRShould			SALE_RRRShould			SALE_T10			SALE_STRN			SALE_TRUN			SALE_LSHO			SALE_LUPA			SALE_LELB			SALE_LFRM			SALE_LWRA			SALE_LWRB			SALE_LFIN			SALE_RSHO			SALE_RUPA			SALE_RELB			SALE_RFRM			SALE_RWRB			SALE_RFIN			SALE_LFWT			SALE_RFWT			SALE_LBWT			SALE_RBWT			SALE_LTHI			SALE_LKNE			SALE_RWRA			SALE_LSHN			SALE_LANK			SALE_LHEE			SALE_LTOE			SALE_RTHI			SALE_RKNE			SALE_RSHN			SALE_RANK			SALE_RHEE			SALE_RTOE		
		X1	Y1	Z1	X2	Y2	Z2	X3	Y3	Z3	X4	Y4	Z4	X5	Y5	Z5	X6	Y6	Z6	X7	Y7	Z7	X8	Y8	Z8	X9	Y9	Z9	X10	Y10	Z10	X11	Y11	Z11	X12	Y12	Z12	X13	Y13	Z13	X14	Y14	Z14	X15	Y15	Z15	X16	Y16	Z16	X17	Y17	Z17	X18	Y18	Z18	X19	Y19	Z19	X20	Y20	Z20	X21	Y21	Z21	X22	Y22	Z22	X23	Y23	Z23	X24	Y24	Z24	X25	Y25	Z25	X26	Y26	Z26	X27	Y27	Z27	X28	Y28	Z28	X29	Y29	Z29	X30	Y30	Z30	X31	Y31	Z31	X32	Y32	Z32	X33	Y33	Z33	X34	Y34	Z34	X35	Y35	Z35	X36	Y36	Z36	X37	Y37	Z37	X38	Y38	Z38	X39	Y39	Z39	X40	Y40	Z40	X41	Y41	Z41
																																																																																																																												
133	4.41	186.29915	1619.87808	459.05636	189.3615	1583.77747	329.90417	54.15545	1618.78372	452.26223	61.8175	1582.38098	329.66595	193.66871	1355.1178	451.42174	50.705	1347.30042	447.74456	187.45338	1407.85126	334.44344	43.60122	1411.47476	338.82381	120.12987	1254.75418	271.30413	115.61552	1281.12137	499.0263	110.83357	1193.27049	536.99097	304.10955	1387.13654	370.6913	364.0625	1177.91588	364.10362	364.50996	1068.15224	363.11829	402.67006	980.09697	431.8911	354.33094	883.83995	554.5182	418.77384	860.79056	520.29152	419.40315	850.97595	584.87404	-49.10977	1381.16333	369.8785	-59.84113	1173.90625	260.60385	-113.74796	1075.00282	266.26377	-110.00648	970.14679	227.17571	-152.18435	830.48492	216.72297	-186.78707	781.76262	247.42346	244.80331	934.23203	428.94928	-33.69642	925.70122	438.07449	175.93895	991.9072	265.76885	1.46384	979.59671	264.20044	229.30355	667.38121	222.45808	226.10287	483.47111	261.61291	-135.79051	818.24181	288.63489	215.52263	286.76758	215.57255	201.89472	117.85833	127.30577	158.96423	79.49216	56.94582	181.08904	60.30205	249.54542	-42.29022	658.90991	394.6954	-17.47903	570.93975	573.80627	32.5664	367.92854	619.32137	3.29619	106.22053	595.38929	63.65664	35.86177	544.90437	-6.39475	76.05163	721.97014
134	4.443	180.3993	1609.75922	521.1338	185.48159	1574.09698	391.76056	48.41993	1608.11462	512.35432	57.78118	1572.36099	389.77859	187.71631	1342.25525	514.37851	45.55806	1335.67459	503.39645	185.61188	1399.25232	397.51118	41.63991	1400.60303	396.13411	122.25808	1244.94514	330.9116	110.23612	1266.36635	557.59499	106.11727	1178.51173	595.29556	300.16449	1379.35608	439.76654	362.53273	1170.23163	435.91671	363.88229	1060.16846	435.26299	399.17274	974.0583	508.32882	346.49906	883.06046	633.07072	411.60069	858.0056	601.55037	410.89287	851.69258	666.2941	-51.38693	1369.48975	422.06829	-55.12815	1161.85059	310.92587	-113.24697	1065.62813	310.85489	-108.93568	962.62138	269.22653	-153.72135	826.12473	249.84463	-190.71329	775.95795	272.92517	243.81567	926.46843	488.41419	-34.35067	916.17165	507.43294	168.40403	981.72089	326.3879	-6.33062	966.04698	331.03806	224.17002	666.19034	276.388	224.39529	480.51804	305.41367	-143.10174	808.20953	322.07119	214.49621	287.00718	241.82934	202.57835	127.24319	137.4249	160.20517	95.50958	63.24653	181.57202	59.31183	252.48917	-38.10838	642.05925	453.5812	-20.28666	551.36505	633.0648	29.17524	370.97549	704.14703	-10.39268	114.27251	735.38177	42.79099	31.63729	694.2366	-11.71916	105.16715	867.13005
135	4.477	174.53367	1602.04254	583.01224	180.21053	1568.40973	453.16879	42.62169	1601.83655	573.26515	52.49705	1568.12897	450.13428	180.57369	1337.16476	576.16199	37.86188	1326.95053	563.39359	179.33052	1391.97479	457.51125	35.61687	1391.21216	453.92773	118.82583	1235.51567	392.80769	103.92527	1260.72472	619.57527	100.77745	1173.94424	659.33342	293.41887	1373.82126	502.04147	358.07819	1165.60783	502.98824	360.43991	1055.3894	501.06304	393.61748	969.16939	574.63753	339.2131	880.04646	699.98009	403.90625	853.55988	668.80661	404.36302	849.68246	733.08884	-56.85445	1359.38828	478.11119	-53.08053	1152.78015	366.63475	-114.18299	1057.27356	361.90762	-110.34517	955.17532	319.93011	-156.23789	821.01563	295.93859	-194.35862	770.46242	313.6088	244.41029	918.63197	553.05943	-32.94792	907.97951	578.02063	162.98773	972.66121	392.72934	-11.46424	960.37354	401.78219	218.32855	663.87619	336.64577	223.67146	477.60303	359.36409	-149.0294	799.07791	367.96574	213.69421	288.53971	276.22124	205.1634	141.82349	153.72119	164.2782	119.31575	75.70813	182.47868	57.80327	258.09988	-43.13093	635.47741	524.6801	-18.52872	545.75489	701.97151	31.91822	367.94746	774.53636	-17.47464	118.38037	825.25795	25.68813	26.57913	780.85266	-2.30365	112.89253	955.62141
136	4.51	168.56327	1598.0751	643.44017	173.23544	1565.50568	513.28888	36.6575	1599.38187	634.18785	45.71313	1566.50482	510.77122	173.27805	1337.75604	637.49168	30.48267	1325.70435	624.0284	170.99171	1386.46652	517.276	27.96758	1383.82004	511.73363	112.59607	1227.58499	457.59254	96.97348	1262.82982	683.42567	95.31496	1176.76407	725.39139	285.79885	1370.23056	560.84911	350.25463	1162.24655	558.55713	352.612	1052.3513	557.98656	386.80668	965.19913	630.54207	333.82851	874.59061	755.43655	397.7372	848.03787	723.10112	399.4569	843.91869	787.20573	-63.43363	1352.29904	536.05511	-57.26392	1145.41489	428.27309	-119.18727	1049.75235	423.27251	-114.7722	947.51968	381.56158	-161.23369	814.78218	356.17516	-198.02134	763.2988	370.56442	242.65921	912.64938	621.82911	-35.02574	908.25829	651.87698	160.83284	967.21771	463.05775	-12.59938	959.31496	474.01184	211.76531	655.55862	408.12832	220.88209	468.2029	433.29887	-154.10658	790.38132	427.6371	213.06261	288.87783	324.39034	208.71742	161.83163	181.62743	169.88583	152.87064	101.04301	183.54776	54.58554	267.30534	-50.86244	640.2478	600.52776	-16.53794	547.4464	771.56174	30.56761	352.94456	831.48994	-19.72987	98.86886	856.66138	22.46376	14.85205	802.95799	-3.93333	82.53084	984.59526
